<svg width="16" height="16" viewBox="0 0 16 16" fill="none" xmlns="http://www.w3.org/2000/svg">
<path fill-rule="evenodd" clip-rule="evenodd" d="M3.17367 8C3.87426 9.67698 5.74983 10.9155 8 10.9155C10.2507 10.9155 12.1258 9.67701 12.8263 8C12.1258 6.32299 10.2507 5.08448 8 5.08448C5.74983 5.08448 3.87426 6.32302 3.17367 8ZM2.03114 7.8229C2.8425 5.58101 5.23132 4 8 4C10.7693 4 13.1575 5.58104 13.9689 7.8229C14.0104 7.93764 14.0104 8.06236 13.9689 8.1771C13.1575 10.419 10.7693 12 8 12C5.23132 12 2.8425 10.419 2.03114 8.1771C1.98962 8.06236 1.98962 7.93764 2.03114 7.8229ZM8 7.06034C7.68106 7.06034 7.38483 7.17075 7.1743 7.35343C6.96558 7.53454 6.86005 7.76844 6.86005 8C6.86005 8.23156 6.96558 8.46546 7.1743 8.64657C7.38483 8.82925 7.68106 8.93966 8 8.93966C8.31894 8.93966 8.61517 8.82925 8.8257 8.64657C9.03442 8.46546 9.13995 8.23156 9.13995 8C9.13995 7.76844 9.03442 7.53454 8.8257 7.35343C8.61517 7.17075 8.31894 7.06034 8 7.06034ZM6.41043 6.55085C6.84047 6.17771 7.41304 5.97586 8 5.97586C8.58696 5.97586 9.15953 6.17771 9.58957 6.55085C10.0214 6.92556 10.2758 7.44552 10.2758 8C10.2758 8.55448 10.0214 9.07444 9.58957 9.44915C9.15953 9.82229 8.58696 10.0241 8 10.0241C7.41304 10.0241 6.84047 9.82229 6.41043 9.44915C5.97859 9.07444 5.72425 8.55449 5.72425 8C5.72425 7.44551 5.97859 6.92556 6.41043 6.55085Z" fill="#717A84"/>
</svg>
