<svg fill="none" xmlns="http://www.w3.org/2000/svg" viewBox="0 0 24 24"><path fill-rule="evenodd" clip-rule="evenodd" d="M0 12.305C0 5.508 5.372 0 12 0c6.626 0 12 5.508 12 12.304 0 5.436-3.436 10.044-8.2 11.674-.61.12-.825-.263-.825-.593a386.134 386.134 0 00.014-3.374c0-1.15-.383-1.9-.813-2.279 2.672-.305 5.479-1.345 5.479-6.072 0-.299-.023-.585-.068-.86h-.546a1.21 1.21 0 00-.383.704 6.108 6.108 0 01-.487 1.674c-.414.792-1.15 1.07-2.007 1.182a3.66 3.66 0 01-1.782-.203c-.785-.296-1.771-.91-1.792-2.438a.492.492 0 00-.536-.483l-.017-.008a.497.497 0 00-.486.276.517.517 0 00-.048.215c-.023 1.53-1.006 2.142-1.801 2.445a3.66 3.66 0 01-1.782.203c-.857-.113-1.593-.392-2.007-1.182a6.106 6.106 0 01-.487-1.681 1.21 1.21 0 00-.378-.704h-.636a5.376 5.376 0 00-.068.861c0 4.715 2.802 5.771 5.466 6.081-.343.307-.653.85-.763 1.644-.683.316-2.422.86-3.492-1.022 0 0-.634-1.18-1.837-1.267 0 0-1.173-.015-.083.748 0 0 .787.379 1.332 1.8 0 0 .704 2.392 4.043 1.65l.01 1.364.005.727c0 .326-.218.706-.818.593C3.438 22.352 0 17.74 0 12.305zM4.622 9.97h.468l.03-.014c1.06-.41 3.107-.347 3.107-.347 2.043.085 2.366.308 3.118.828l.198.136a.772.772 0 00.499.114.772.772 0 00.508-.12l.2-.136c.753-.516 1.078-.738 3.115-.827 0 0 2.047-.057 3.107.346a.217.217 0 01.039.02h.367a4.766 4.766 0 00-.957-1.61c.123-.312.535-1.563-.12-3.257 0 0-1.005-.33-3.296 1.262A11.208 11.208 0 0012 5.949a11.227 11.227 0 00-3.004.416c-2.292-1.592-3.3-1.261-3.3-1.261-.652 1.693-.24 2.944-.117 3.256a4.785 4.785 0 00-.957 1.61z" /></svg>
