<svg fill="none" xmlns="http://www.w3.org/2000/svg" viewBox="0 0 16 16"><path clip-rule="evenodd" d="M8 2c.24 0 .456.144.549.366l1.364 3.28 3.54.283a.594.594 0 01.34 1.044l-2.698 2.31.824 3.456a.594.594 0 01-.888.645L8 11.532l-3.031 1.852a.594.594 0 01-.888-.645l.824-3.455-2.697-2.311a.594.594 0 01.339-1.044l3.54-.283 1.364-3.28A.594.594 0 018 2zm0 2.142l-.955 2.295a.594.594 0 01-.5.364L4.064 7l1.889 1.617c.17.145.243.373.191.59l-.576 2.418 2.121-1.296a.594.594 0 01.62 0l2.121 1.296-.576-2.419a.594.594 0 01.191-.589L11.934 7 9.456 6.8a.594.594 0 01-.501-.364L8 4.142z"/></svg>
