<?xml version="1.0" standalone="no"?>
<!DOCTYPE svg PUBLIC "-//W3C//DTD SVG 20010904//EN"
 "http://www.w3.org/TR/2001/REC-SVG-20010904/DTD/svg10.dtd">
<svg version="1.0" xmlns="http://www.w3.org/2000/svg"
 width="260.000000pt" height="260.000000pt" viewBox="0 0 260.000000 260.000000"
 preserveAspectRatio="xMidYMid meet">
<metadata>
Created by potrace 1.14, written by Peter Selinger 2001-2017
</metadata>
<g transform="translate(0.000000,260.000000) scale(0.100000,-0.100000)"
fill="#000000" stroke="none">
<path d="M1095 2584 c-239 -42 -477 -156 -645 -310 -58 -54 -77 -73 -148 -153
-36 -41 -126 -180 -161 -249 -41 -81 -95 -243 -117 -352 -19 -90 -26 -339 -12
-435 32 -217 110 -418 232 -594 88 -129 292 -320 394 -372 15 -7 38 -21 52
-30 42 -27 196 -89 221 -89 13 0 33 7 44 16 18 13 20 27 21 145 l0 130 -50 -7
c-141 -20 -255 14 -330 97 -24 27 -51 69 -59 92 -20 59 -59 120 -103 159 -100
90 -100 89 -80 103 49 36 157 -10 223 -95 82 -106 105 -129 150 -151 54 -26
145 -29 208 -6 33 12 42 20 51 54 14 47 40 101 62 126 14 15 13 17 -6 17 -26
0 -18 -1 -94 16 -189 44 -311 122 -384 247 -40 69 -70 151 -82 231 l-9 57 80
-3 81 -3 12 -47 c52 -207 305 -292 473 -159 64 51 109 139 113 219 2 38 23 54
74 54 47 0 60 -14 67 -73 29 -247 337 -352 509 -175 36 37 78 113 78 140 0 40
11 46 86 46 l74 0 0 -27 c0 -50 -30 -156 -63 -222 -81 -166 -273 -280 -505
-300 -9 -1 -7 -9 8 -28 55 -70 63 -120 64 -406 1 -206 2 -219 21 -234 29 -21
84 -9 194 43 264 125 485 340 616 601 49 97 109 272 119 345 4 26 11 69 16 95
14 74 5 336 -14 428 -87 411 -336 747 -692 932 -86 45 -262 107 -334 118 -25
4 -54 10 -65 12 -48 12 -314 10 -390 -3z m-270 -589 c50 -25 104 -54 122 -64
27 -17 37 -18 70 -9 149 41 381 42 548 4 l59 -14 71 42 c102 61 169 87 232 89
l56 2 15 -40 c18 -50 25 -215 11 -272 -10 -39 -9 -45 17 -80 16 -21 37 -52 46
-69 26 -46 58 -173 58 -226 l0 -48 -83 0 -82 0 -17 48 c-25 69 -78 126 -153
163 -60 29 -71 31 -139 27 -140 -9 -235 -87 -280 -231 -5 -14 -10 -16 -25 -7
-25 13 -77 13 -101 0 -17 -9 -21 -6 -26 17 -20 83 -89 163 -171 199 -156 69
-351 -17 -403 -178 l-12 -38 -85 0 -85 0 5 73 c8 104 53 220 110 284 17 19 18
27 8 73 -15 71 -14 165 4 234 9 32 18 63 21 68 14 22 119 -2 209 -47z m234
-533 c47 -29 97 -89 108 -132 3 -14 6 -52 7 -85 0 -169 -178 -285 -334 -217
-159 69 -199 266 -82 394 73 79 210 97 301 40z m717 9 c88 -45 136 -122 136
-220 1 -101 -67 -198 -161 -230 -79 -26 -190 -3 -249 52 -35 32 -72 111 -76
159 -8 117 73 232 182 257 54 13 124 5 168 -18z"/>
<path d="M740 1197 c0 -44 19 -77 59 -104 39 -27 91 -31 91 -8 0 10 -10 15
-29 15 -44 0 -91 44 -91 85 0 20 -6 35 -15 39 -11 4 -15 -2 -15 -27z"/>
<path d="M1479 1213 c-5 -88 49 -147 129 -141 38 4 24 25 -19 31 -53 7 -79 33
-83 82 -4 40 -25 62 -27 28z"/>
</g>
</svg>
