<?xml version="1.0" standalone="no"?>
<!DOCTYPE svg PUBLIC "-//W3C//DTD SVG 20010904//EN"
 "http://www.w3.org/TR/2001/REC-SVG-20010904/DTD/svg10.dtd">
<svg version="1.0" xmlns="http://www.w3.org/2000/svg"
 width="260.000000pt" height="260.000000pt" viewBox="0 0 260.000000 260.000000"
 preserveAspectRatio="xMidYMid meet">
<metadata>
Created by potrace 1.14, written by Peter Selinger 2001-2017
</metadata>
<g transform="translate(0.000000,260.000000) scale(0.100000,-0.100000)"
fill="#000000" stroke="none">
<path d="M1095 2584 c-44 -8 -116 -25 -160 -39 -44 -13 -83 -25 -87 -25 -4 -1
-45 -19 -90 -42 -113 -55 -230 -132 -308 -204 -58 -54 -77 -73 -148 -153 -36
-41 -126 -180 -161 -249 -41 -81 -95 -243 -117 -352 -19 -90 -26 -339 -12
-435 32 -217 110 -418 232 -594 88 -129 292 -320 394 -372 15 -7 38 -21 52
-30 42 -27 196 -89 221 -89 13 0 33 7 44 16 18 13 20 27 21 145 l0 130 -50 -7
c-143 -20 -255 13 -330 97 -24 27 -51 69 -59 92 -20 59 -59 120 -103 159 -100
90 -100 89 -80 103 49 36 157 -10 223 -95 82 -106 105 -129 150 -151 54 -26
145 -29 208 -6 33 12 42 20 51 54 14 47 40 101 62 126 14 15 13 17 -4 18 -93
3 -250 55 -335 110 -99 63 -178 181 -214 317 -19 74 -31 234 -21 286 6 33 10
36 42 36 28 0 38 -6 54 -32 11 -18 20 -43 20 -55 0 -50 50 -179 83 -216 105
-113 355 -113 483 0 59 54 74 84 89 187 8 56 22 69 68 63 21 -3 41 -7 43 -10
2 -2 7 -28 9 -56 15 -168 158 -275 355 -267 172 8 255 83 293 269 20 91 39
119 80 115 l32 -3 -1 -120 c-3 -207 -50 -341 -160 -451 -93 -94 -249 -159
-412 -173 -9 -1 -7 -9 8 -28 55 -70 63 -120 64 -406 1 -206 2 -219 21 -234 14
-10 33 -13 60 -9 58 9 267 116 355 182 188 141 344 342 439 564 26 62 69 206
76 260 4 25 10 65 15 90 14 72 5 335 -14 425 -16 77 -31 133 -43 165 -3 8 -7
20 -8 25 -8 37 -74 177 -115 246 -126 209 -313 386 -526 496 -86 45 -262 107
-334 118 -25 4 -54 10 -65 12 -48 12 -314 10 -390 -3z m-270 -589 c50 -25 104
-54 122 -64 27 -17 37 -18 70 -9 149 41 381 42 548 4 l59 -14 71 42 c102 61
169 87 232 89 l56 2 15 -40 c18 -50 25 -215 11 -272 -11 -39 -9 -45 18 -80 40
-52 76 -127 62 -132 -5 -1 -31 2 -57 9 -81 21 -123 25 -292 24 -189 0 -247
-12 -339 -71 -81 -52 -108 -53 -184 -6 -78 49 -106 60 -187 71 -67 10 -336 9
-380 -2 -93 -22 -129 -28 -139 -25 -13 5 38 109 71 146 18 19 19 27 9 73 -15
71 -14 165 4 234 9 32 18 63 21 68 14 22 119 -2 209 -47z"/>
</g>
</svg>
