<svg width="28" height="28" viewBox="0 0 28 28" fill="none" xmlns="http://www.w3.org/2000/svg">
<path fill-rule="evenodd" clip-rule="evenodd" d="M13.9997 2.33337C7.55618 2.33337 2.33301 7.54021 2.33301 13.965C2.33301 19.103 5.67551 23.4617 10.3118 24.9994C10.8952 25.1067 11.1075 24.7474 11.1075 24.4394C11.1075 24.164 11.0982 23.4314 11.0923 22.4619C7.84668 23.1642 7.16184 20.902 7.16184 20.902C6.63217 19.5592 5.86684 19.201 5.86684 19.201C4.80751 18.48 5.94734 18.494 5.94734 18.494C7.11751 18.5757 7.73351 19.6922 7.73351 19.6922C8.77418 21.4702 10.4647 20.9569 11.1285 20.6582C11.2358 19.908 11.5368 19.3947 11.8705 19.1042C9.28051 18.8114 6.55634 17.8127 6.55634 13.356C6.55634 12.0867 7.01134 11.0472 7.75684 10.2352C7.63668 9.94121 7.23651 8.75821 7.87118 7.15754C7.87118 7.15754 8.85117 6.84487 11.0795 8.34987C12.0314 8.09087 13.0132 7.95867 13.9997 7.95671C14.9913 7.96137 15.9888 8.08971 16.921 8.34871C19.1482 6.84371 20.1258 7.15637 20.1258 7.15637C20.7628 8.75704 20.3615 9.94004 20.2425 10.234C20.9892 11.046 21.4418 12.0855 21.4418 13.3549C21.4418 17.8232 18.713 18.8067 16.1148 19.0949C16.5337 19.453 16.9058 20.1624 16.9058 21.2485C16.9058 22.8025 16.8918 24.0567 16.8918 24.4382C16.8918 24.7497 17.1018 25.1114 17.6945 24.9982C22.3262 23.4582 25.6663 19.1019 25.6663 13.9639C25.6663 7.54021 20.442 2.33337 13.9997 2.33337Z"/>
</svg>
