<svg fill="none" xmlns="http://www.w3.org/2000/svg" viewBox="0 0 16 16"><path d="M4.42 6.274c.043.326.18.721.41 1.185.23.464.666.816 1.308 1.056.651.24 1.03.457 1.14.65.108.194.162.355.162.484v.09c-.4.12-.73.348-.99.682-.26.335-.39.718-.39 1.147 0 .532.189.987.566 1.365A1.87 1.87 0 008 13.5a1.87 1.87 0 001.374-.567c.377-.378.566-.833.566-1.365 0-.43-.13-.812-.39-1.146a1.933 1.933 0 00-.99-.683v-.09c0-.13.054-.288.163-.477.108-.189.488-.408 1.139-.657.642-.24 1.079-.592 1.309-1.056.23-.464.366-.859.41-1.185a1.913 1.913 0 001.015-.676c.27-.34.404-.728.404-1.166 0-.532-.191-.987-.573-1.365A1.877 1.877 0 0011.06 2.5c-.538 0-.998.189-1.38.567a1.851 1.851 0 00-.573 1.365c0 .42.128.797.384 1.127.256.33.58.56.97.69a2.396 2.396 0 01-.274.675c-.138.245-.377.432-.716.56-.33.13-.616.263-.859.4a2.878 2.878 0 00-.612.45 2.878 2.878 0 00-.612-.45 6.731 6.731 0 00-.86-.4c-.338-.128-.577-.315-.715-.56a2.397 2.397 0 01-.274-.676c.39-.129.714-.358.97-.689.256-.33.384-.706.384-1.127 0-.532-.19-.987-.573-1.365A1.892 1.892 0 004.94 2.5c-.53 0-.985.189-1.367.567A1.851 1.851 0 003 4.432c0 .438.135.827.404 1.166.269.339.607.564 1.015.676zm6.64-2.666c.226 0 .42.08.586.238a.782.782 0 01.247.586.788.788 0 01-.247.58.805.805 0 01-.586.244.799.799 0 01-.593-.244.799.799 0 01-.24-.58c0-.232.08-.427.24-.586a.81.81 0 01.593-.238zm-2.227 7.96a.782.782 0 01-.247.586.816.816 0 01-.586.238.816.816 0 01-.586-.238.782.782 0 01-.247-.586c0-.223.082-.417.247-.58A.805.805 0 018 10.744c.226 0 .421.081.586.244a.788.788 0 01.247.58zM4.94 3.608a.81.81 0 01.593.238c.16.159.24.354.24.586 0 .223-.08.417-.24.58a.799.799 0 01-.593.244.805.805 0 01-.586-.244.788.788 0 01-.247-.58c0-.232.082-.427.247-.586a.816.816 0 01.586-.238z"/></svg>
