<svg width="16" height="16" viewBox="0 0 16 16" fill="none" xmlns="http://www.w3.org/2000/svg">
<path fill-rule="evenodd" clip-rule="evenodd" d="M8.00004 4.13067L7.30601 6.36372C7.24347 6.56425 7.12062 6.74304 6.95078 6.87189C6.7806 7.001 6.57272 7.07251 6.35686 7.07248C6.35681 7.07248 6.3569 7.07248 6.35686 7.07248H4.04895L5.93583 8.5056C6.10562 8.63467 6.22852 8.8138 6.29084 9.01451C6.35311 9.21505 6.35307 9.43041 6.29074 9.63093L5.58283 11.9101L7.40551 10.5258C7.40556 10.5257 7.40546 10.5258 7.40551 10.5258C7.57576 10.3964 7.78397 10.3246 8.00004 10.3246C8.21612 10.3246 8.42417 10.3963 8.59442 10.5256C8.59447 10.5257 8.59436 10.5256 8.59442 10.5256L10.4173 11.9101L9.70935 9.63093C9.70934 9.63089 9.70936 9.63097 9.70935 9.63093C9.64705 9.43045 9.64699 9.215 9.70925 9.01451C9.77157 8.8138 9.8943 8.63479 10.0641 8.50572L11.9511 7.07248L9.64235 7.07248C9.42661 7.07232 9.21892 7.0007 9.0489 6.87158C8.87927 6.74275 8.75656 6.56409 8.69408 6.36372L8.00004 4.13067ZM11.9662 7.05297C11.9662 7.05296 11.9663 7.05309 11.9664 7.05338ZM8.94934 3.7096C8.65518 2.76261 7.34518 2.76443 7.05085 3.70928L6.32615 6.04099H3.99655C3.50049 6.04099 3.16199 6.38197 3.04729 6.75074C2.93296 7.11829 3.01646 7.58329 3.40199 7.87638L5.30603 9.32253C5.30603 9.32252 5.30603 9.32254 5.30603 9.32253C5.30603 9.32356 5.30586 9.32435 5.30575 9.32472L4.5767 11.6719C4.57673 11.6719 4.57668 11.672 4.5767 11.6719C4.57669 11.672 4.57659 11.6723 4.57658 11.6724C4.43515 12.127 4.6169 12.5585 4.9313 12.7975C5.24924 13.0392 5.72632 13.097 6.12019 12.7973C6.12018 12.7973 6.1202 12.7973 6.12019 12.7973L8.00004 11.3695L9.87986 12.7972C9.87997 12.7973 9.88009 12.7974 9.8802 12.7975C9.88017 12.7975 9.88023 12.7975 9.8802 12.7975C10.2738 13.0968 10.7507 13.0394 11.0687 12.7978C11.3834 12.5586 11.5649 12.1268 11.4234 11.6721L10.6944 9.32484C10.6943 9.32473 10.6943 9.32444 10.6942 9.32425C10.6941 9.32383 10.6941 9.32326 10.6941 9.32256C10.6941 9.32257 10.6941 9.32255 10.6941 9.32256L12.5983 7.87619C12.9833 7.5832 13.067 7.11854 12.9529 6.75102C12.8383 6.38196 12.4998 6.04099 12.0035 6.04099H9.67394L8.94934 3.7096C8.94935 3.70965 8.94932 3.70955 8.94934 3.7096Z" fill="#717A84"/>
</svg>
